<svg width="18" height="20" viewBox="0 0 18 20" fill="none" xmlns="http://www.w3.org/2000/svg">
<path d="M1.6752 20.0002C1.2252 20.0002 0.8334 19.8334 0.4998 19.4998C0.1666 19.1666 0 18.775 0 18.325V3.32502C0 2.87502 0.1666 2.48762 0.4998 2.16282C0.8334 1.83762 1.2252 1.67502 1.6752 1.67502H3.075V-0.000183105H4.8252V1.67502H13.1748V-0.000183105H14.925V1.67502H16.3248C16.7748 1.67502 17.1666 1.83762 17.5002 2.16282C17.8334 2.48762 18 2.87502 18 3.32502V18.325C18 18.775 17.8334 19.1666 17.5002 19.4998C17.1666 19.8334 16.7748 20.0002 16.3248 20.0002H1.6752ZM1.6752 18.325H16.3248V7.82502H1.6752V18.325Z" fill="black"/>
</svg>
