<svg width="24" height="16" viewBox="0 0 24 16" fill="none" xmlns="http://www.w3.org/2000/svg">
<path d="M0.974976 15.9998V13.5002C0.974976 12.9166 1.12078 12.3874 1.41238 11.9126C1.70398 11.4374 2.10818 11.0832 2.62498 10.85C3.79178 10.3168 4.87518 9.9292 5.87518 9.6872C6.87518 9.4456 7.90838 9.3248 8.97478 9.3248C10.0248 9.3248 11.0498 9.4456 12.0498 9.6872C13.0498 9.9292 14.1248 10.3168 15.2748 10.85C15.7916 11.0832 16.2042 11.4374 16.5126 11.9126C16.821 12.3874 16.9752 12.9166 16.9752 13.5002V15.9998H0.974976ZM18.6252 15.9998V13.4252C18.6252 12.4916 18.3792 11.6874 17.8872 11.0126C17.3956 10.3374 16.7416 9.7748 15.9252 9.3248C16.9752 9.4584 17.9626 9.6502 18.8874 9.9002C19.8126 10.1502 20.5918 10.4418 21.225 10.775C21.7918 11.1082 22.2334 11.4956 22.5498 11.9372C22.8666 12.3792 23.025 12.8752 23.025 13.4252V15.9998H18.6252ZM8.97478 7.9748C7.87478 7.9748 6.95818 7.6124 6.22498 6.8876C5.49178 6.1624 5.12518 5.2498 5.12518 4.1498C5.12518 3.0498 5.49178 2.1374 6.22498 1.4126C6.95818 0.687398 7.87478 0.324799 8.97478 0.324799C10.0748 0.324799 10.9874 0.687398 11.7126 1.4126C12.4374 2.1374 12.7998 3.0498 12.7998 4.1498C12.7998 5.2498 12.4374 6.1624 11.7126 6.8876C10.9874 7.6124 10.0748 7.9748 8.97478 7.9748ZM18.3 4.1498C18.3 5.2498 17.9376 6.1624 17.2128 6.8876C16.4876 7.6124 15.575 7.9748 14.475 7.9748C14.2918 7.9748 14.0752 7.9624 13.8252 7.9376C13.5752 7.9124 13.3584 7.8666 13.1748 7.8002C13.5916 7.3502 13.9124 6.8126 14.1372 6.1874C14.3624 5.5626 14.475 4.8834 14.475 4.1498C14.475 3.4166 14.3624 2.75 14.1372 2.15C13.9124 1.55 13.5916 0.999998 13.1748 0.499998C13.3748 0.433198 13.5916 0.387398 13.8252 0.362598C14.0584 0.337398 14.275 0.324799 14.475 0.324799C15.575 0.324799 16.4876 0.687398 17.2128 1.4126C17.9376 2.1374 18.3 3.0498 18.3 4.1498Z" fill="black"/>
</svg>
